<svg width="53" height="53" viewBox="0 0 53 53" fill="none" xmlns="http://www.w3.org/2000/svg">
<mask id="mask0_541_4576" style="mask-type:luminance" maskUnits="userSpaceOnUse" x="5" y="0" width="48" height="53">
<path d="M5.68188 0H52.0569V53H5.68188V0Z" fill="white"/>
</mask>
<g mask="url(#mask0_541_4576)">
<path fill-rule="evenodd" clip-rule="evenodd" d="M10.6047 52.4019C11.5708 52.793 12.583 53 13.6297 53H43.9482H43.9597C44.6268 53 45.1904 52.77 45.662 52.2984C46.1336 51.8268 46.3636 51.2632 46.3636 50.6076C46.3636 49.9405 46.1336 49.377 45.662 48.9054C45.1904 48.4453 44.6268 48.2038 43.9597 48.2038H13.6412C13.2271 48.2038 12.836 48.1233 12.4565 47.9737C12.0769 47.8127 11.7434 47.5942 11.4443 47.3066C11.1568 47.0191 10.9382 46.6855 10.7772 46.306C10.6162 45.9264 10.5357 45.5354 10.5357 45.1328V27.1786C8.28131 27.2222 5.70496 26.2068 5.70496 26.2068V45.1328C5.71646 46.168 5.91199 47.1801 6.31455 48.1348C6.71711 49.1009 7.29219 49.952 8.02831 50.6882C8.77592 51.4243 9.62705 51.9993 10.6047 52.4019ZM16.6 9.70553C17.9483 11.0371 18.5664 11.9143 19.3589 13.7578L27.5813 5.3138C27.9148 4.96875 28.3174 4.79622 28.7889 4.79622C29.272 4.79622 29.6746 4.96875 29.9966 5.3138L47.7323 23.5211C48.1924 24.0041 48.756 24.2457 49.4231 24.2572C50.0902 24.2687 50.6653 24.0501 51.1483 23.5901C51.6199 23.13 51.8729 22.5664 51.8844 21.8993C51.8844 21.2322 51.6659 20.6686 51.1943 20.197L33.4702 1.9783C32.8491 1.34571 32.1475 0.862632 31.3308 0.517581C30.5142 0.172527 29.6746 0 28.7889 0C27.9148 0 27.0637 0.172527 26.2471 0.517581C25.4419 0.862632 24.7288 1.34571 24.1192 1.9783L16.6 9.70553Z" fill="white"/>
</g>
<path d="M30.3476 43.9979C30.3476 43.9979 36.1224 44.2675 38.6528 38.6725C41.1832 38.9339 42.7433 37.235 42.9839 33.7228C43.2245 30.8559 40.7019 30.8559 39.4911 30.9866C39.134 29.2959 36.3631 27.9972 32.7538 27.6051C32.7538 26.821 32.6373 25.7837 32.1561 24.7464C30.953 22.1409 31.7991 20.3195 31.7991 20.3195C31.9155 20.1969 31.7991 20.0581 31.7991 20.0581C31.6749 19.9274 31.5507 20.0581 31.5507 20.0581C31.4343 20.3195 29.5016 23.0475 30.953 25.261C31.4343 25.9144 31.5507 26.6903 31.5507 27.4744C31.1936 27.4744 30.7124 27.4744 30.3476 27.4744H29.8664C29.8664 27.2131 29.7499 26.9599 29.6257 26.6903C28.4149 24.4769 29.2609 22.9168 29.2609 22.9168C29.2609 22.7943 29.2609 22.7943 29.1445 22.6554C29.1445 22.6554 29.0203 22.6554 28.8961 22.6554C28.7797 22.9168 26.8548 25.261 28.4149 27.2131C28.5391 27.3438 28.5391 27.3438 28.6633 27.4744C24.3321 27.8665 21.0799 29.4266 21.0799 31.3787C19.9933 44.39 30.3476 43.9979 30.3476 43.9979ZM37.6903 32.2935C37.2091 32.9387 36.1224 33.4615 34.8029 33.7228C33.5921 34.1149 32.0319 34.3681 30.3476 34.3681C28.6633 34.3681 27.1031 34.1067 25.7681 33.7228C24.4486 33.4615 23.4861 32.9387 22.8807 32.2935C22.8807 32.1628 22.8807 32.0239 22.8807 32.0239C23.4783 31.3787 24.4486 30.8559 25.7681 30.4639C26.7306 30.3413 27.8172 30.08 28.8961 30.08C28.7797 30.9866 28.2985 31.7707 28.0578 32.1546C27.9414 32.2853 27.9414 32.416 28.0578 32.416C28.1743 32.5467 28.1743 32.5467 28.2985 32.416C28.2985 32.416 29.7422 31.7707 30.107 29.9493H30.3476C30.5882 29.9493 30.8288 29.9493 31.0695 29.9493C30.953 30.4639 30.7124 30.8559 30.5882 30.9866C30.5882 31.1173 30.5882 31.248 30.5882 31.3787C30.7124 31.3787 30.7124 31.3787 30.8366 31.3787C30.8366 31.3787 31.5584 30.9866 32.1561 30.08C33.1186 30.2025 34.0811 30.3413 34.8029 30.4639C36.1302 30.8559 37.2169 31.3787 37.6981 32.0239C37.8068 32.0321 37.8068 32.2935 37.6903 32.2935ZM39.0176 37.5045C39.4911 36.1977 39.7395 34.5069 39.6153 32.5548C39.8559 32.5548 40.2129 32.6773 40.5777 32.6773C42.1456 33.0694 40.9348 35.8056 40.6942 36.8429C40.4536 37.3657 39.6153 37.5045 39.0176 37.5045Z" fill="white"/>
<mask id="mask1_541_4576" style="mask-type:luminance" maskUnits="userSpaceOnUse" x="0" y="6" width="22" height="23">
<path d="M0 6.87891H21.2V28.0789H0V6.87891Z" fill="white"/>
</mask>
<g mask="url(#mask1_541_4576)">
<path d="M12.1955 25.0259C11.9747 25.1142 11.798 25.0314 11.6986 24.8823C11.6545 24.8658 11.6158 24.8382 11.5772 24.8051C9.57313 23.066 9.44615 20.6976 10.0866 18.2684C10.738 15.8006 12.1348 12.9463 10.9644 10.4288C10.7215 9.90984 11.406 9.45161 11.7263 9.81599C11.8643 9.67245 12.0796 9.60068 12.3115 9.71109C17.5839 12.328 18.0421 22.7844 12.1955 25.0259ZM10.5061 25.2909C7.27646 25.4896 5.37729 21.8735 4.9025 19.1296C4.56573 17.1863 4.89698 15.1657 5.75271 13.388C6.15021 12.5709 6.63604 11.6047 7.34271 10.9974C7.96656 10.4564 8.70635 10.1859 9.42958 9.81047C9.72219 9.65589 9.99271 9.81599 10.1086 10.0368C10.2191 10.0644 10.324 10.1362 10.3902 10.2742C11.6158 12.7752 10.2467 15.2154 9.76083 17.7053C9.37437 19.6817 9.06521 22.7403 10.6055 24.3082L10.611 24.3192C11.13 24.391 11.0914 25.2522 10.5061 25.2909ZM10.6 6.87891C4.74792 6.87891 0 11.6213 0 17.4789C0 23.331 4.74792 28.0734 10.6 28.0734C16.4521 28.0734 21.2 23.331 21.2 17.4789C21.2 11.6213 16.4521 6.87891 10.6 6.87891Z" fill="white"/>
</g>
</svg>
