<svg width="143" height="40" viewBox="0 0 143 40" fill="none" xmlns="http://www.w3.org/2000/svg">
<mask id="mask0_18_2" style="mask-type:luminance" maskUnits="userSpaceOnUse" x="4" y="0" width="36" height="40">
<path d="M4.28821 0H39.2882V40H4.28821V0Z" fill="white"/>
</mask>
<g mask="url(#mask0_18_2)">
<path fill-rule="evenodd" clip-rule="evenodd" d="M8.00352 39.5157C8.73269 39.8109 9.49658 39.9671 10.2865 39.9671H33.1685H33.1771C33.6806 39.9671 34.106 39.7935 34.4619 39.4376C34.8178 39.0817 34.9914 38.6563 34.9914 38.1615C34.9914 37.6581 34.8178 37.2327 34.4619 36.8768C34.106 36.5296 33.6806 36.3473 33.1771 36.3473H10.2952C9.98269 36.3473 9.68755 36.2865 9.40109 36.1737C9.11463 36.0522 8.8629 35.8872 8.6372 35.6702C8.42019 35.4532 8.25526 35.2015 8.13373 34.915C8.0122 34.6286 7.95144 34.3334 7.95144 34.0296V20.4792C6.25002 20.5121 4.3056 19.7458 4.3056 19.7458V34.0296C4.31428 34.8109 4.46185 35.5747 4.76567 36.2952C5.06949 37.0244 5.50352 37.6668 6.05907 38.2223C6.62331 38.7779 7.26567 39.2119 8.00352 39.5157ZM12.5283 7.29203C13.5458 8.29698 14.0124 8.95902 14.6104 10.3504L20.816 3.97752C21.0678 3.7171 21.3716 3.58689 21.7275 3.58689C22.0921 3.58689 22.3959 3.7171 22.6389 3.97752L36.0244 17.7188C36.3716 18.0834 36.7969 18.2657 37.3004 18.2744C37.8039 18.2831 38.2379 18.1181 38.6025 17.7709C38.9584 17.4237 39.1494 16.9984 39.158 16.4949C39.158 15.9914 38.9931 15.5661 38.6372 15.2102L25.2605 1.46016C24.7917 0.982729 24.2622 0.618145 23.6459 0.357729C23.0296 0.0973114 22.3959 -0.0328979 21.7275 -0.0328979C21.0678 -0.0328979 20.4254 0.0973114 19.8091 0.357729C19.2014 0.618145 18.6632 0.982729 18.2032 1.46016L12.5283 7.29203Z" fill="#333333"/>
</g>
<path d="M41.1714 34.5733C41.1714 34.5733 45.0775 34.7488 46.7891 31.1062C48.5007 31.2764 49.556 30.1703 49.7187 27.8838C49.8815 26.0173 48.1752 26.0173 47.3561 26.1024C47.1146 25.0016 45.2403 24.1561 42.799 23.9009C42.799 23.3904 42.7202 22.7151 42.3947 22.0398C41.5809 20.3434 42.1532 19.1576 42.1532 19.1576C42.2319 19.0779 42.1532 18.9875 42.1532 18.9875C42.0692 18.9024 41.9852 18.9875 41.9852 18.9875C41.9064 19.1576 40.5991 20.9337 41.5809 22.3748C41.9064 22.8002 41.9852 23.3053 41.9852 23.8158C41.7437 23.8158 41.4182 23.8158 41.1714 23.8158H40.8459C40.8459 23.6457 40.7671 23.4808 40.6831 23.3053C39.8641 21.8643 40.4364 20.8486 40.4364 20.8486C40.4364 20.7689 40.4364 20.7689 40.3576 20.6785C40.3576 20.6785 40.2736 20.6785 40.1896 20.6785C40.1109 20.8486 38.8088 22.3748 39.8641 23.6457C39.9481 23.7307 39.9481 23.7307 40.0321 23.8158C37.1025 24.0711 34.9027 25.0867 34.9027 26.3576C34.1677 34.8285 41.1714 34.5733 41.1714 34.5733ZM46.1381 26.9532C45.8126 27.3733 45.0775 27.7136 44.185 27.8838C43.366 28.139 42.3107 28.3039 41.1714 28.3039C40.0321 28.3039 38.9768 28.1337 38.0738 27.8838C37.1813 27.7136 36.5302 27.3733 36.1207 26.9532C36.1207 26.8681 36.1207 26.7777 36.1207 26.7777C36.525 26.3576 37.1813 26.0173 38.0738 25.7621C38.7248 25.6823 39.4599 25.5121 40.1896 25.5121C40.1109 26.1024 39.7854 26.6129 39.6226 26.8628C39.5439 26.9479 39.5439 27.033 39.6226 27.033C39.7014 27.118 39.7014 27.118 39.7854 27.033C39.7854 27.033 40.7619 26.6129 41.0087 25.4271H41.1714C41.3342 25.4271 41.4969 25.4271 41.6597 25.4271C41.5809 25.7621 41.4182 26.0173 41.3342 26.1024C41.3342 26.1875 41.3342 26.2725 41.3342 26.3576C41.4182 26.3576 41.4182 26.3576 41.5022 26.3576C41.5022 26.3576 41.9904 26.1024 42.3947 25.5121C43.0457 25.5919 43.6968 25.6823 44.185 25.7621C45.0828 26.0173 45.8178 26.3576 46.1433 26.7777C46.2168 26.783 46.2168 26.9532 46.1381 26.9532ZM47.0359 30.3458C47.3561 29.495 47.5241 28.3943 47.4401 27.1234C47.6029 27.1234 47.8444 27.2031 48.0912 27.2031C49.1517 27.4584 48.3327 29.2398 48.1699 29.9151C48.0072 30.2554 47.4401 30.3458 47.0359 30.3458Z" fill="#333333"/>
<path d="M24.9895 13.7413C26.4801 13.7413 27.9531 14.0745 29.4087 14.7233C30.8993 15.3371 32.1619 16.1613 33.1966 17.1784L30.1803 20.7559C29.5139 19.9667 28.7248 19.3354 27.7953 18.8619C26.8483 18.3534 25.9365 18.0903 25.0596 18.0903C23.4112 18.0903 22.0609 18.6866 20.9912 19.844C19.9039 20.9663 19.3778 22.3692 19.3778 24.0527C19.3778 25.7362 19.9039 27.1742 20.9912 28.3316C22.0609 29.454 23.4112 30.0151 25.0596 30.0151C25.9014 30.0151 26.7782 29.8047 27.7252 29.3838C28.6546 28.9629 29.4788 28.3842 30.1803 27.6302L33.1966 30.8569C32.1093 31.9792 30.8116 32.8911 29.2684 33.5926C27.7602 34.2589 26.2696 34.5746 24.779 34.5746C21.6926 34.5746 19.1148 33.5926 17.063 31.6285C15.0463 29.6293 14.0467 27.1216 14.0467 24.1229C14.0467 21.1767 15.0638 18.7216 17.1331 16.7575C19.2375 14.7584 21.8505 13.7413 24.9895 13.7413Z" fill="#333333"/>
<path d="M79.2358 22.0746C81.5125 22.0746 83.2273 22.7843 84.3805 24.2035C85.5631 25.6227 86.0658 27.5593 85.9179 29.9986H76.5748C76.8113 30.7969 77.1809 31.403 77.6983 31.8317C78.2453 32.2752 78.9106 32.4822 79.7089 32.4822C80.9211 32.4822 81.9855 32.0387 82.9021 31.1221L85.1492 33.3101C83.73 34.8476 81.7934 35.6163 79.3541 35.6163C77.1809 35.6163 75.466 35.0102 74.2094 33.7832C72.938 32.5709 72.3171 30.9447 72.3171 28.9342C72.3171 26.8941 72.938 25.2383 74.2094 23.9669C75.466 22.7103 77.1366 22.0746 79.2358 22.0746ZM76.5156 27.7515H81.8377C81.8377 26.9236 81.6012 26.2732 81.1281 25.8001C80.655 25.2974 80.0341 25.0313 79.2949 25.0313C78.541 25.0313 77.9053 25.2974 77.4027 25.8001C76.9296 26.2732 76.6339 26.9236 76.5156 27.7515Z" fill="#333333"/>
<path d="M94.3243 22.0746C96.601 22.0746 98.3158 22.7843 99.469 24.2035C100.652 25.6227 101.154 27.5593 101.006 29.9986H91.6633C91.8998 30.7969 92.2694 31.403 92.7868 31.8317C93.3338 32.2752 93.9991 32.4822 94.7974 32.4822C96.0096 32.4822 97.074 32.0387 97.9906 31.1221L100.238 33.3101C98.8185 34.8476 96.8819 35.6163 94.4426 35.6163C92.2694 35.6163 90.5545 35.0102 89.2979 33.7832C88.0265 32.5709 87.4056 30.9447 87.4056 28.9342C87.4056 26.8941 88.0265 25.2383 89.2979 23.9669C90.5545 22.7103 92.2251 22.0746 94.3243 22.0746ZM91.6041 27.7515H96.9262C96.9262 26.9236 96.6897 26.2732 96.2166 25.8001C95.7435 25.2974 95.1226 25.0313 94.3834 25.0313C93.6295 25.0313 92.9938 25.2974 92.4912 25.8001C92.0181 26.2732 91.7224 26.9236 91.6041 27.7515Z" fill="#333333"/>
<path d="M58.4173 18.589C57.9165 18.589 57.4992 18.7226 57.1486 18.9897C56.8314 19.2568 56.6812 19.6908 56.6812 20.2584V21.3268H60.0866V24.4651H56.6812V35.6163H51.9403V24.4651H49.9371V21.3268H51.9403V19.9245C51.9403 18.322 52.4745 17.0866 53.5428 16.1852C54.6112 15.2504 55.9801 14.783 57.6828 14.783C59.2353 14.783 60.6375 15.1502 61.8895 15.8513L60.1534 19.19C59.6192 18.7894 59.035 18.589 58.4173 18.589Z" fill="#333333"/>
<path d="M70.3807 18.589C69.8799 18.589 69.4626 18.7226 69.1121 18.9897C68.7949 19.2568 68.6446 19.6908 68.6446 20.2584V21.3268H72.0501V24.4651H68.6446V35.6163H63.9037V24.4651H61.9005V21.3268H63.9037V19.9245C63.9037 18.322 64.4379 17.0866 65.5063 16.1852C66.5747 15.2504 67.9435 14.783 69.6462 14.783C71.1987 14.783 72.601 15.1502 73.853 15.8513L72.1169 19.19C71.5827 18.7894 70.9984 18.589 70.3807 18.589Z" fill="#333333"/>
<path d="M111.453 35.6163H106.156V14.783H111.453V35.6163Z" fill="#333333"/>
<path d="M122.147 22.0746C123.602 22.0746 124.775 22.5498 125.651 23.5001C126.557 24.4207 127.017 25.6679 127.017 27.2419V35.6163H122.741V28.4297C122.741 27.6428 122.518 27.034 122.087 26.5885C121.686 26.1134 121.107 25.8758 120.365 25.8758C119.608 25.8758 118.999 26.1431 118.524 26.6479C118.049 27.1231 117.766 27.7616 117.692 28.5485V35.6163H113.416V22.3122H117.692V24.4504C118.598 22.9062 120.083 22.1192 122.147 22.0746Z" fill="#333333"/>
<path d="M137.235 22.0746C138.69 22.0746 139.863 22.5498 140.739 23.5001C141.645 24.4207 142.105 25.6679 142.105 27.2419V35.6163H137.829V28.4297C137.829 27.6428 137.606 27.034 137.176 26.5885C136.775 26.1134 136.196 25.8758 135.453 25.8758C134.696 25.8758 134.087 26.1431 133.612 26.6479C133.137 27.1231 132.855 27.7616 132.781 28.5485V35.6163H128.504V22.3122H132.781V24.4504C133.686 22.9062 135.171 22.1192 137.235 22.0746Z" fill="#333333"/>
<mask id="mask1_18_2" style="mask-type:luminance" maskUnits="userSpaceOnUse" x="0" y="5" width="16" height="17">
<path d="M0 5.19165H16V21.1917H0V5.19165Z" fill="white"/>
</mask>
<g mask="url(#mask1_18_2)">
<path d="M9.20417 18.8875C9.0375 18.9542 8.90417 18.8917 8.82917 18.7792C8.79583 18.7667 8.76667 18.7458 8.7375 18.7208C7.225 17.4083 7.12917 15.6208 7.6125 13.7875C8.10417 11.925 9.15833 9.77082 8.275 7.87082C8.09167 7.47915 8.60833 7.13332 8.85 7.40832C8.95417 7.29998 9.11667 7.24582 9.29167 7.32915C13.2708 9.30415 13.6167 17.1958 9.20417 18.8875ZM7.92917 19.0875C5.49167 19.2375 4.05833 16.5083 3.7 14.4375C3.44583 12.9708 3.69583 11.4458 4.34167 10.1042C4.64167 9.48748 5.00833 8.75832 5.54167 8.29998C6.0125 7.89165 6.57083 7.68748 7.11667 7.40415C7.3375 7.28748 7.54167 7.40832 7.62917 7.57498C7.7125 7.59582 7.79167 7.64998 7.84167 7.75415C8.76667 9.64165 7.73333 11.4833 7.36667 13.3625C7.075 14.8542 6.84167 17.1625 8.00417 18.3458L8.00833 18.3542C8.4 18.4083 8.37083 19.0583 7.92917 19.0875ZM8 5.19165C3.58333 5.19165 0 8.77082 0 13.1917C0 17.6083 3.58333 21.1875 8 21.1875C12.4167 21.1875 16 17.6083 16 13.1917C16 8.77082 12.4167 5.19165 8 5.19165Z" fill="#333333"/>
</g>
</svg>
